<svg width="31" height="30" viewBox="0 0 31 30" fill="none" xmlns="http://www.w3.org/2000/svg">
<g opacity="0.5" clip-path="url(#clip0_17_78)">
<path d="M11.2171 2.68823C6.65021 2.68823 2.93494 6.40324 2.93494 10.9699C2.93494 13.1823 3.79629 15.2622 5.36025 16.8264C6.92448 18.3907 9.0044 19.2522 11.217 19.2522C13.4287 19.2522 15.5084 18.3909 17.0729 16.8264C18.6376 15.2617 19.4991 13.1821 19.4991 10.9701C19.4992 6.40351 15.7839 2.68823 11.2171 2.68823ZM16.336 16.0891C14.9685 17.4564 13.1506 18.2098 11.2171 18.2098C9.28287 18.2098 7.46453 17.4564 6.09747 16.0896C4.7304 14.7222 3.97751 12.9044 3.97751 10.9702C3.97751 6.97851 7.22549 3.73101 11.2171 3.73101C15.209 3.73101 18.4568 6.97851 18.4568 10.9704C18.4567 12.9036 17.7037 14.7217 16.336 16.0891Z" fill="white"/>
<path d="M29.2818 24.3719L22.752 17.8421L21.6757 18.9184L20.1259 17.3691C23.2485 13.0337 22.787 7.02699 18.9737 3.2133C16.9017 1.14119 14.1467 0 11.2166 0C11.2164 0 11.2168 0 11.2164 0C8.28673 0 5.53149 1.14119 3.4602 3.21303C-0.817054 7.49055 -0.817054 14.4501 3.4602 18.7268C7.27321 22.5408 13.2799 23.0023 17.6156 19.8794L19.1657 21.4287L18.0889 22.506L24.6185 29.0353C25.2614 29.6782 26.1056 30 26.9501 30C27.7942 29.9995 28.6392 29.6782 29.2818 29.0353C29.9045 28.4128 30.2476 27.5849 30.2478 26.7038C30.2478 25.8231 29.9048 24.9946 29.2818 24.3719ZM28.5451 28.2982C27.6654 29.1774 26.2347 29.1774 25.3555 28.2982L19.5629 22.5061L21.1572 20.9108L20.4201 20.1737L19.9023 20.6917L17.7049 18.4949L17.3416 18.7808C13.3985 21.8803 7.74763 21.5405 4.19728 17.9899C0.326577 14.1194 0.326577 7.82108 4.19728 3.95018C6.07222 2.07503 8.56514 1.0425 11.2168 1.0425C13.8685 1.0425 16.3617 2.0753 18.2365 3.95038C21.7871 7.50114 22.1269 13.1522 19.0272 17.0954L18.7416 17.4587L21.6761 20.3927L22.7524 19.3164L28.545 25.1086C28.9708 25.5349 29.2058 26.1008 29.2058 26.7036C29.2055 27.3059 28.9709 27.8724 28.5451 28.2982Z" fill="white"/>
<path d="M26.8301 26.8241L25.3594 25.353L24.622 26.0901L26.0931 27.5617C26.4021 27.8703 26.7627 27.9164 26.9501 27.9164C27.1377 27.9164 27.4984 27.8703 27.808 27.5608L27.0708 26.8236C27.0045 26.89 26.8956 26.8896 26.8301 26.8241Z" fill="white"/>
<path d="M7.08253 6.83581C5.97657 7.94204 5.36749 9.4103 5.36749 10.9706H6.41C6.41 9.68878 6.91061 8.48223 7.81995 7.57316C8.72902 6.66409 9.9351 6.16348 11.2166 6.16348H11.2171V5.12097C11.2171 5.12097 11.2169 5.12097 11.2166 5.12097C9.65635 5.12104 8.18829 5.73005 7.08253 6.83581Z" fill="white"/>
</g>
<defs>
<clipPath id="clip0_17_78">
<rect width="30" height="30" fill="white" transform="translate(0.25)"/>
</clipPath>
</defs>
</svg>
